<?xml version="1.0" standalone="no"?>
<!DOCTYPE svg PUBLIC "-//W3C//DTD SVG 20010904//EN"
 "http://www.w3.org/TR/2001/REC-SVG-20010904/DTD/svg10.dtd">
<svg version="1.0" xmlns="http://www.w3.org/2000/svg"
 width="140.000000pt" height="140.000000pt" viewBox="0 0 140.000000 140.000000"
 preserveAspectRatio="xMidYMid meet">
<metadata>
Created by potrace 1.14, written by Peter Selinger 2001-2017
</metadata>
<g transform="translate(0.000000,140.000000) scale(0.100000,-0.100000)"
fill="#000000" stroke="none">
<path d="M635 1250 c-139 -16 -239 -64 -337 -162 -200 -201 -216 -512 -37
-739 l28 -36 -41 -57 -41 -57 44 6 c40 5 199 29 259 39 14 3 30 5 37 5 11 1
11 11 -2 81 -3 14 -7 45 -10 70 -3 25 -12 81 -18 124 l-13 80 -49 -67 c-35
-48 -52 -64 -60 -57 -7 6 -25 38 -41 73 -23 52 -28 76 -28 147 0 72 4 94 27
143 44 96 115 165 207 201 52 21 165 29 210 16 l32 -9 -7 52 c-4 29 -9 54 -12
57 -3 3 -44 4 -92 4 -144 -2 -245 -41 -345 -133 l-50 -46 30 39 c38 52 130
119 202 147 47 19 78 24 177 25 204 3 203 3 182 18 -16 12 -89 30 -162 39 -16
2 -57 0 -90 -3z"/>
<path d="M1055 1184 c-44 -7 -100 -15 -125 -18 -88 -12 -101 -17 -96 -34 3
-10 8 -39 11 -67 3 -27 14 -99 23 -160 l17 -109 45 62 c25 34 49 62 53 62 4 0
22 -30 40 -67 27 -59 31 -79 31 -153 1 -75 -3 -93 -30 -151 -45 -94 -122 -166
-214 -198 -53 -18 -141 -24 -184 -13 l-37 11 6 -47 c3 -26 10 -51 14 -55 13
-13 129 -11 196 3 73 15 127 36 180 68 23 15 34 19 27 9 -24 -29 -106 -75
-172 -97 -53 -18 -91 -23 -202 -25 -173 -2 -192 -12 -82 -41 58 -15 183 -20
238 -9 50 10 136 43 184 71 111 64 223 220 252 349 25 107 8 271 -37 360 -8
16 -33 56 -55 88 l-39 59 28 39 c15 22 34 48 41 58 11 16 10 18 -10 18 -13 -1
-59 -6 -103 -13z"/>
<path d="M640 892 c-107 -165 -129 -274 -68 -339 51 -55 113 -70 173 -44 122
54 126 171 11 355 -66 107 -65 106 -116 28z"/>
</g>
</svg>
